<?xml version="1.0" standalone="no"?><!DOCTYPE svg PUBLIC "-//W3C//DTD SVG 1.1//EN" "http://www.w3.org/Graphics/SVG/1.1/DTD/svg11.dtd"><svg t="1568779753258" class="icon" viewBox="0 0 1024 1024" version="1.1" xmlns="http://www.w3.org/2000/svg" p-id="2031" xmlns:xlink="http://www.w3.org/1999/xlink" width="200" height="200"><defs><style type="text/css"></style></defs><path d="M917.243422 511.83927l91.969869-90.009871c27.415961-25.953963 14.631979-72.077897-21.32797-80.677885l-125.299821-31.979955 35.32195-124.029823c9.981986-35.675949-23.657966-69.325901-59.321916-59.341915l-123.987823 35.333949-31.967954-125.341821C674.169769 0.393999 627.529835-12.551982 601.979872 14.455979L512 107.139847 422.022128 14.457979c-25.259964-26.701962-72.093897-14.467979-80.649885 21.33597l-31.967954 125.341821-123.989823-35.333949C149.740517 115.813835 116.112564 149.475787 126.09255 185.143736l35.32195 124.029823-125.299821 31.979955C0.13873 349.755501-12.619252 395.887436 14.784709 421.829399l91.969869 90.009871-91.969869 90.007872c-27.415961 25.953963-14.631979 72.077897 21.32797 80.677885l125.299821 31.979954-35.32195 124.029823c-9.981986 35.675949 23.657966 69.325901 59.321916 59.341916l123.987823-35.33395 31.967954 125.341821c8.877987 37.149947 55.391921 48.035932 80.649885 21.33597L512 917.218692l89.977872 92.001869c24.999964 26.975962 71.973897 14.971979 80.649885-21.33597l31.967954-125.341821 123.987823 35.33395c35.671949 9.987986 69.301901-23.673966 59.321916-59.341916l-35.32195-124.029823 125.299821-31.979954c35.973949-8.603988 48.731931-54.733922 21.32797-80.677885l-91.967869-90.007872z" p-id="2032" fill="#192718"></path></svg>