<?xml version="1.0" standalone="no"?><!DOCTYPE svg PUBLIC "-//W3C//DTD SVG 1.1//EN" "http://www.w3.org/Graphics/SVG/1.1/DTD/svg11.dtd"><svg t="1568513819133" class="icon" viewBox="0 0 1024 1024" version="1.1" xmlns="http://www.w3.org/2000/svg" p-id="833" xmlns:xlink="http://www.w3.org/1999/xlink" width="200" height="200"><defs><style type="text/css"></style></defs><path d="M289.906048 944.441554c-8.559833 34.31933 12.27976 69.058651 46.55909 77.618484 5.219898 1.319974 10.439796 1.899963 15.599696 1.899963 28.65944 0 54.738931-19.399621 62.038788-48.459054l50.479014-201.936056-105.557938-105.557938-69.11865 276.434601z m29.779418-392.232339L402.003858 233.99543c4.379914-16.839671-6.279877-33.899338-23.839534-38.119256-87.758286-21.039589-176.696549 30.139411-198.63612 114.337767L128.989191 506.470108c-4.379914 16.839671 6.279877 33.899338 23.839534 38.119255l127.117517 30.499405c17.579657 4.199918 35.359309-6.039882 39.739224-22.879553zM863.994835 319.99375h-31.999375c-17.679655 0-31.999375 14.31972-31.999375 31.999375v31.999375h-69.498642l-93.558173-93.558173C614.759703 268.214761 585.22028 255.995 553.820893 255.995c-54.038945 0-100.938029 36.599285-114.057772 89.038261l-53.838949 215.435792a64.02275 64.02275 0 0 0 16.839672 60.778813L576.00046 794.484483V959.98125c0 35.33931 28.65944 63.99875 63.99875 63.99875s63.99875-28.65944 63.99875-63.99875v-165.496767c0-34.179332-13.31974-66.318705-37.499268-90.498233l-93.638171-93.638171c0.299994-0.99998 0.979981-1.779965 1.239976-2.819945l39.779223-159.136892 44.859124 44.859124c11.999766 11.999766 28.279448 18.759634 45.239116 18.759634h95.998126v479.990625c0 17.679655 14.31972 31.999375 31.999375 31.999375h31.999375c17.679655 0 31.999375-14.31972 31.999375-31.999375V351.993125c0.02-17.679655-14.299721-31.999375-31.979376-31.999375zM607.999835 191.99625c53.018964 0 95.998125-42.979161 95.998125-95.998125S661.0188 0 607.999835 0s-95.998125 42.979161-95.998125 95.998125 42.979161 95.998125 95.998125 95.998125z" fill="#6aa43c" p-id="834"></path></svg>